<mxfile host="app.diagrams.net" modified="2021-05-12T15:20:31.397Z" agent="5.0 (Windows NT 10.0; Win64; x64) AppleWebKit/537.36 (KHTML, like Gecko) Chrome/90.0.4430.212 Safari/537.36" etag="mwagkielX8DYnBVKKK0t" version="14.6.12" type="github">
  <diagram id="YqBdRVbUH3X9ktw2vI_X" name="Page-1">
    <mxGraphModel dx="868" dy="2763" grid="1" gridSize="10" guides="1" tooltips="1" connect="1" arrows="1" fold="1" page="1" pageScale="1" pageWidth="827" pageHeight="1169" math="0" shadow="0">
      <root>
        <mxCell id="0" />
        <mxCell id="1" parent="0" />
        <mxCell id="K1Y7uYMDMErFbE7dxKjb-18" value="&lt;font style=&quot;font-size: 14px&quot;&gt;Creazione profilo utente con informazioni&lt;br&gt;che ne delineano la personalità&lt;/font&gt;" style="text;html=1;resizable=0;autosize=1;align=center;verticalAlign=middle;points=[];fillColor=none;strokeColor=none;rounded=0;fontSize=10;" parent="1" vertex="1">
          <mxGeometry x="279" y="-1790" width="270" height="30" as="geometry" />
        </mxCell>
        <mxCell id="K1Y7uYMDMErFbE7dxKjb-21" value="" style="endArrow=classic;html=1;" parent="1" edge="1">
          <mxGeometry width="50" height="50" relative="1" as="geometry">
            <mxPoint x="414" y="-1920" as="sourcePoint" />
            <mxPoint x="414" y="-1840" as="targetPoint" />
          </mxGeometry>
        </mxCell>
        <mxCell id="K1Y7uYMDMErFbE7dxKjb-42" value="&lt;font style=&quot;font-size: 14px&quot;&gt;A seguito della registrazione, l&#39;utente &lt;br&gt;può caricare la foto di una propria opera&lt;/font&gt;" style="text;html=1;resizable=0;autosize=1;align=center;verticalAlign=middle;points=[];fillColor=none;strokeColor=none;rounded=0;fontSize=7;" parent="1" vertex="1">
          <mxGeometry x="284" y="-1150" width="260" height="30" as="geometry" />
        </mxCell>
        <mxCell id="K1Y7uYMDMErFbE7dxKjb-43" value="&lt;font style=&quot;font-size: 14px&quot;&gt;Il sito mostra una lista di opere simili da cui prendere &lt;br&gt;ispirazione,&amp;nbsp;&lt;/font&gt;&lt;font style=&quot;font-size: 14px&quot;&gt;insieme a suggerimenti sulle tecniche utilizzate&lt;/font&gt;" style="text;html=1;resizable=0;autosize=1;align=center;verticalAlign=middle;points=[];fillColor=none;strokeColor=none;rounded=0;fontSize=7;" parent="1" vertex="1">
          <mxGeometry x="224" y="-550" width="380" height="30" as="geometry" />
        </mxCell>
        <mxCell id="aPGD0B7xL6Ei6CuIqLXa-1" value="" style="strokeWidth=1;shadow=0;dashed=0;align=center;html=1;shape=mxgraph.mockup.containers.browserWindow;rSize=0;strokeColor=#666666;strokeColor2=#008cff;strokeColor3=#c4c4c4;mainText=,;recursiveResize=0;" parent="1" vertex="1">
          <mxGeometry x="139" y="-2310" width="550" height="380" as="geometry" />
        </mxCell>
        <mxCell id="aPGD0B7xL6Ei6CuIqLXa-2" value="Page 1" style="strokeWidth=1;shadow=0;dashed=0;align=center;html=1;shape=mxgraph.mockup.containers.anchor;fontSize=17;fontColor=#666666;align=left;" parent="aPGD0B7xL6Ei6CuIqLXa-1" vertex="1">
          <mxGeometry x="60" y="12" width="110" height="26" as="geometry" />
        </mxCell>
        <mxCell id="aPGD0B7xL6Ei6CuIqLXa-3" value="https://www.draw.io" style="strokeWidth=1;shadow=0;dashed=0;align=center;html=1;shape=mxgraph.mockup.containers.anchor;rSize=0;fontSize=17;fontColor=#666666;align=left;" parent="aPGD0B7xL6Ei6CuIqLXa-1" vertex="1">
          <mxGeometry x="130" y="60" width="250" height="26" as="geometry" />
        </mxCell>
        <mxCell id="K1Y7uYMDMErFbE7dxKjb-6" value="&lt;font style=&quot;font-size: 10px&quot;&gt;Username&lt;/font&gt;" style="strokeWidth=1;shadow=0;dashed=0;align=center;html=1;shape=mxgraph.mockup.text.textBox;fontColor=#666666;align=left;fontSize=17;spacingLeft=4;spacingTop=-3;strokeColor=#666666;mainText=" parent="aPGD0B7xL6Ei6CuIqLXa-1" vertex="1">
          <mxGeometry x="275" y="197.5" width="75" height="17" as="geometry" />
        </mxCell>
        <mxCell id="K1Y7uYMDMErFbE7dxKjb-10" value="&lt;font style=&quot;font-size: 11px&quot;&gt;Username&lt;/font&gt;" style="text;html=1;resizable=0;autosize=1;align=left;verticalAlign=middle;points=[];fillColor=none;strokeColor=none;rounded=0;" parent="aPGD0B7xL6Ei6CuIqLXa-1" vertex="1">
          <mxGeometry x="170" y="192.5" width="70" height="20" as="geometry" />
        </mxCell>
        <mxCell id="K1Y7uYMDMErFbE7dxKjb-11" value="&lt;font style=&quot;font-size: 11px&quot;&gt;Password&lt;/font&gt;" style="text;html=1;resizable=0;autosize=1;align=left;verticalAlign=middle;points=[];fillColor=none;strokeColor=none;rounded=0;" parent="aPGD0B7xL6Ei6CuIqLXa-1" vertex="1">
          <mxGeometry x="170" y="227" width="60" height="20" as="geometry" />
        </mxCell>
        <mxCell id="K1Y7uYMDMErFbE7dxKjb-12" value="********" style="strokeWidth=1;shadow=0;dashed=0;align=center;html=1;shape=mxgraph.mockup.forms.pwField;strokeColor=#999999;mainText=;align=left;fontColor=#666666;fontSize=17;spacingLeft=3;" parent="aPGD0B7xL6Ei6CuIqLXa-1" vertex="1">
          <mxGeometry x="275" y="230" width="75" height="17" as="geometry" />
        </mxCell>
        <mxCell id="K1Y7uYMDMErFbE7dxKjb-17" value="SUBMIT" style="strokeWidth=1;shadow=0;dashed=0;align=center;html=1;shape=mxgraph.mockup.buttons.button;strokeColor=#666666;fontColor=#ffffff;mainText=;buttonStyle=round;fontSize=10;fontStyle=1;fillColor=#008cff;whiteSpace=wrap;" parent="aPGD0B7xL6Ei6CuIqLXa-1" vertex="1">
          <mxGeometry x="222.5" y="290" width="65" height="20" as="geometry" />
        </mxCell>
        <mxCell id="B12CX4f54RW9JIWW8Okp-6" value="&lt;font style=&quot;font-size: 14px&quot;&gt;SIGN IN&lt;/font&gt;" style="text;html=1;resizable=0;autosize=1;align=center;verticalAlign=middle;points=[];fillColor=none;strokeColor=none;rounded=0;" parent="aPGD0B7xL6Ei6CuIqLXa-1" vertex="1">
          <mxGeometry x="217.5" y="140" width="70" height="20" as="geometry" />
        </mxCell>
        <mxCell id="aPGD0B7xL6Ei6CuIqLXa-4" value="" style="strokeWidth=1;shadow=0;dashed=0;align=center;html=1;shape=mxgraph.mockup.containers.browserWindow;rSize=0;strokeColor=#666666;strokeColor2=#008cff;strokeColor3=#c4c4c4;mainText=,;recursiveResize=0;" parent="1" vertex="1">
          <mxGeometry x="139" y="-1730" width="551" height="390" as="geometry" />
        </mxCell>
        <mxCell id="aPGD0B7xL6Ei6CuIqLXa-5" value="Page 1" style="strokeWidth=1;shadow=0;dashed=0;align=center;html=1;shape=mxgraph.mockup.containers.anchor;fontSize=17;fontColor=#666666;align=left;" parent="aPGD0B7xL6Ei6CuIqLXa-4" vertex="1">
          <mxGeometry x="60" y="12" width="110" height="26" as="geometry" />
        </mxCell>
        <mxCell id="aPGD0B7xL6Ei6CuIqLXa-6" value="https://www.draw.io" style="strokeWidth=1;shadow=0;dashed=0;align=center;html=1;shape=mxgraph.mockup.containers.anchor;rSize=0;fontSize=17;fontColor=#666666;align=left;" parent="aPGD0B7xL6Ei6CuIqLXa-4" vertex="1">
          <mxGeometry x="130" y="60" width="250" height="26" as="geometry" />
        </mxCell>
        <mxCell id="K1Y7uYMDMErFbE7dxKjb-3" value="" style="shape=image;html=1;verticalAlign=top;verticalLabelPosition=bottom;labelBackgroundColor=#ffffff;imageAspect=0;aspect=fixed;image=https://cdn4.iconfinder.com/data/icons/basic-ui-2-line/32/person-people-man-profile-human-128.png;strokeWidth=1;" parent="aPGD0B7xL6Ei6CuIqLXa-4" vertex="1">
          <mxGeometry x="156" y="135" width="40" height="40" as="geometry" />
        </mxCell>
        <mxCell id="K1Y7uYMDMErFbE7dxKjb-4" value="&lt;font style=&quot;font-size: 14px&quot;&gt;CREATE &lt;br&gt;YOUR PROFILE&lt;/font&gt;" style="text;html=1;resizable=0;autosize=1;align=center;verticalAlign=middle;points=[];fillColor=none;strokeColor=none;rounded=0;" parent="aPGD0B7xL6Ei6CuIqLXa-4" vertex="1">
          <mxGeometry x="201" y="135" width="120" height="40" as="geometry" />
        </mxCell>
        <mxCell id="K1Y7uYMDMErFbE7dxKjb-5" value="" style="strokeWidth=1;shadow=0;dashed=0;align=center;html=1;shape=mxgraph.mockup.text.textBox;fontColor=#666666;align=left;fontSize=17;spacingLeft=4;spacingTop=-3;strokeColor=#666666;mainText=" parent="aPGD0B7xL6Ei6CuIqLXa-4" vertex="1">
          <mxGeometry x="293.25" y="265.6300000000001" width="75" height="17" as="geometry" />
        </mxCell>
        <mxCell id="K1Y7uYMDMErFbE7dxKjb-7" value="&lt;span style=&quot;font-size: 10px&quot;&gt;Violet&lt;/span&gt;" style="strokeWidth=1;shadow=0;dashed=0;align=left;html=1;shape=mxgraph.mockup.text.textBox;fontColor=#666666;align=left;fontSize=10;spacingLeft=4;spacingTop=-3;strokeColor=#666666;mainText=" parent="aPGD0B7xL6Ei6CuIqLXa-4" vertex="1">
          <mxGeometry x="293.25" y="241" width="75" height="17" as="geometry" />
        </mxCell>
        <mxCell id="K1Y7uYMDMErFbE7dxKjb-8" value="" style="strokeWidth=1;shadow=0;dashed=0;align=center;html=1;shape=mxgraph.mockup.text.textBox;fontColor=#666666;align=left;fontSize=17;spacingLeft=4;spacingTop=-3;strokeColor=#666666;mainText=" parent="aPGD0B7xL6Ei6CuIqLXa-4" vertex="1">
          <mxGeometry x="293.25" y="290.0000000000001" width="75" height="17" as="geometry" />
        </mxCell>
        <mxCell id="K1Y7uYMDMErFbE7dxKjb-9" value="&lt;span style=&quot;font-size: 10px&quot;&gt;baby Bear&lt;/span&gt;" style="strokeWidth=1;shadow=0;dashed=0;align=center;html=1;shape=mxgraph.mockup.text.textBox;fontColor=#666666;align=left;fontSize=17;spacingLeft=4;spacingTop=-3;strokeColor=#666666;mainText=" parent="aPGD0B7xL6Ei6CuIqLXa-4" vertex="1">
          <mxGeometry x="293.25" y="313.1300000000001" width="75" height="17" as="geometry" />
        </mxCell>
        <mxCell id="K1Y7uYMDMErFbE7dxKjb-13" value="&lt;font style=&quot;font-size: 11px&quot;&gt;Favorite color&lt;/font&gt;" style="text;html=1;resizable=0;autosize=1;align=left;verticalAlign=middle;points=[];fillColor=none;strokeColor=none;rounded=0;" parent="aPGD0B7xL6Ei6CuIqLXa-4" vertex="1">
          <mxGeometry x="146" y="238.0000000000001" width="80" height="20" as="geometry" />
        </mxCell>
        <mxCell id="K1Y7uYMDMErFbE7dxKjb-14" value="&lt;font style=&quot;font-size: 11px&quot;&gt;Clothing&lt;/font&gt;" style="text;html=1;resizable=0;autosize=1;align=left;verticalAlign=middle;points=[];fillColor=none;strokeColor=none;rounded=0;" parent="aPGD0B7xL6Ei6CuIqLXa-4" vertex="1">
          <mxGeometry x="146" y="262.6300000000001" width="60" height="20" as="geometry" />
        </mxCell>
        <mxCell id="K1Y7uYMDMErFbE7dxKjb-15" value="&lt;font style=&quot;font-size: 11px&quot;&gt;Favorite food&lt;/font&gt;" style="text;html=1;resizable=0;autosize=1;align=left;verticalAlign=middle;points=[];fillColor=none;strokeColor=none;rounded=0;" parent="aPGD0B7xL6Ei6CuIqLXa-4" vertex="1">
          <mxGeometry x="146" y="287.0000000000001" width="80" height="20" as="geometry" />
        </mxCell>
        <mxCell id="K1Y7uYMDMErFbE7dxKjb-16" value="&lt;font style=&quot;font-size: 11px&quot;&gt;Object of childhood&lt;/font&gt;" style="text;html=1;resizable=0;autosize=1;align=left;verticalAlign=middle;points=[];fillColor=none;strokeColor=none;rounded=0;" parent="aPGD0B7xL6Ei6CuIqLXa-4" vertex="1">
          <mxGeometry x="146" y="310.1300000000001" width="110" height="20" as="geometry" />
        </mxCell>
        <mxCell id="B12CX4f54RW9JIWW8Okp-2" value="&lt;font style=&quot;font-size: 11px&quot;&gt;Nome&lt;/font&gt;" style="text;html=1;resizable=0;autosize=1;align=left;verticalAlign=middle;points=[];fillColor=none;strokeColor=none;rounded=0;" parent="aPGD0B7xL6Ei6CuIqLXa-4" vertex="1">
          <mxGeometry x="146" y="189.5" width="40" height="20" as="geometry" />
        </mxCell>
        <mxCell id="B12CX4f54RW9JIWW8Okp-3" value="&lt;font style=&quot;font-size: 10px&quot;&gt;Sofia&lt;/font&gt;" style="strokeWidth=1;shadow=0;dashed=0;align=center;html=1;shape=mxgraph.mockup.text.textBox;fontColor=#666666;align=left;fontSize=17;spacingLeft=4;spacingTop=-3;strokeColor=#666666;mainText=" parent="aPGD0B7xL6Ei6CuIqLXa-4" vertex="1">
          <mxGeometry x="293.25" y="192.5" width="75" height="17" as="geometry" />
        </mxCell>
        <mxCell id="B12CX4f54RW9JIWW8Okp-4" value="CREATE" style="strokeWidth=1;shadow=0;dashed=0;align=center;html=1;shape=mxgraph.mockup.buttons.button;strokeColor=#666666;fontColor=#ffffff;mainText=;buttonStyle=round;fontSize=10;fontStyle=1;fillColor=#008cff;whiteSpace=wrap;" parent="aPGD0B7xL6Ei6CuIqLXa-4" vertex="1">
          <mxGeometry x="211" y="345" width="65" height="20" as="geometry" />
        </mxCell>
        <mxCell id="B12CX4f54RW9JIWW8Okp-8" value="&lt;font style=&quot;font-size: 11px&quot;&gt;Cognome&lt;/font&gt;" style="text;html=1;resizable=0;autosize=1;align=left;verticalAlign=middle;points=[];fillColor=none;strokeColor=none;rounded=0;" parent="aPGD0B7xL6Ei6CuIqLXa-4" vertex="1">
          <mxGeometry x="146" y="213.88" width="60" height="20" as="geometry" />
        </mxCell>
        <mxCell id="B12CX4f54RW9JIWW8Okp-9" value="&lt;font style=&quot;font-size: 10px&quot;&gt;Pascucci&lt;/font&gt;" style="strokeWidth=1;shadow=0;dashed=0;align=center;html=1;shape=mxgraph.mockup.text.textBox;fontColor=#666666;align=left;fontSize=17;spacingLeft=4;spacingTop=-3;strokeColor=#666666;mainText=" parent="aPGD0B7xL6Ei6CuIqLXa-4" vertex="1">
          <mxGeometry x="293.25" y="216.88" width="75" height="17" as="geometry" />
        </mxCell>
        <mxCell id="aPGD0B7xL6Ei6CuIqLXa-7" value="" style="endArrow=classic;html=1;" parent="1" edge="1">
          <mxGeometry width="50" height="50" relative="1" as="geometry">
            <mxPoint x="413" y="-1330" as="sourcePoint" />
            <mxPoint x="413" y="-1250" as="targetPoint" />
          </mxGeometry>
        </mxCell>
        <mxCell id="aPGD0B7xL6Ei6CuIqLXa-8" value="" style="strokeWidth=1;shadow=0;dashed=0;align=center;html=1;shape=mxgraph.mockup.containers.browserWindow;rSize=0;strokeColor=#666666;strokeColor2=#008cff;strokeColor3=#c4c4c4;mainText=,;recursiveResize=0;" parent="1" vertex="1">
          <mxGeometry x="138" y="-1080" width="551" height="390" as="geometry" />
        </mxCell>
        <mxCell id="aPGD0B7xL6Ei6CuIqLXa-9" value="Page 1" style="strokeWidth=1;shadow=0;dashed=0;align=center;html=1;shape=mxgraph.mockup.containers.anchor;fontSize=17;fontColor=#666666;align=left;" parent="aPGD0B7xL6Ei6CuIqLXa-8" vertex="1">
          <mxGeometry x="60" y="12" width="110" height="26" as="geometry" />
        </mxCell>
        <mxCell id="aPGD0B7xL6Ei6CuIqLXa-10" value="https://www.draw.io" style="strokeWidth=1;shadow=0;dashed=0;align=center;html=1;shape=mxgraph.mockup.containers.anchor;rSize=0;fontSize=17;fontColor=#666666;align=left;" parent="aPGD0B7xL6Ei6CuIqLXa-8" vertex="1">
          <mxGeometry x="130" y="60" width="250" height="26" as="geometry" />
        </mxCell>
        <mxCell id="K1Y7uYMDMErFbE7dxKjb-24" value="" style="shape=image;html=1;verticalAlign=top;verticalLabelPosition=bottom;labelBackgroundColor=#ffffff;imageAspect=0;aspect=fixed;image=https://cdn4.iconfinder.com/data/icons/multimedia-75/512/multimedia-49-128.png" parent="aPGD0B7xL6Ei6CuIqLXa-8" vertex="1">
          <mxGeometry x="170" y="130" width="55" height="55" as="geometry" />
        </mxCell>
        <mxCell id="K1Y7uYMDMErFbE7dxKjb-25" value="&lt;font style=&quot;font-size: 14px&quot;&gt;UPLOAD A PHOTO&lt;br&gt;OF YOUR WORK&lt;/font&gt;" style="text;html=1;resizable=0;autosize=1;align=center;verticalAlign=middle;points=[];fillColor=none;strokeColor=none;rounded=0;" parent="aPGD0B7xL6Ei6CuIqLXa-8" vertex="1">
          <mxGeometry x="230.5" y="137.5" width="140" height="40" as="geometry" />
        </mxCell>
        <mxCell id="B12CX4f54RW9JIWW8Okp-14" value="Nessun file selezionato" style="text;html=1;resizable=0;autosize=1;align=center;verticalAlign=middle;points=[];fillColor=none;strokeColor=none;rounded=0;fontSize=11;" parent="aPGD0B7xL6Ei6CuIqLXa-8" vertex="1">
          <mxGeometry x="205.5" y="235.5" width="130" height="20" as="geometry" />
        </mxCell>
        <mxCell id="B12CX4f54RW9JIWW8Okp-15" value="SCEGLI FILE" style="strokeWidth=1;shadow=0;dashed=0;align=center;html=1;shape=mxgraph.mockup.buttons.button;strokeColor=#666666;fontColor=#ffffff;mainText=;buttonStyle=round;fontSize=10;fontStyle=1;fillColor=#008cff;whiteSpace=wrap;" parent="aPGD0B7xL6Ei6CuIqLXa-8" vertex="1">
          <mxGeometry x="235.5" y="277.5" width="70" height="20" as="geometry" />
        </mxCell>
        <mxCell id="aPGD0B7xL6Ei6CuIqLXa-11" value="" style="endArrow=classic;html=1;" parent="1" edge="1">
          <mxGeometry width="50" height="50" relative="1" as="geometry">
            <mxPoint x="413" y="-679" as="sourcePoint" />
            <mxPoint x="413" y="-599" as="targetPoint" />
          </mxGeometry>
        </mxCell>
        <mxCell id="aPGD0B7xL6Ei6CuIqLXa-12" value="" style="strokeWidth=1;shadow=0;dashed=0;align=center;html=1;shape=mxgraph.mockup.containers.browserWindow;rSize=0;strokeColor=#666666;strokeColor2=#008cff;strokeColor3=#c4c4c4;mainText=,;recursiveResize=0;" parent="1" vertex="1">
          <mxGeometry x="139" y="-480" width="550" height="430" as="geometry" />
        </mxCell>
        <mxCell id="aPGD0B7xL6Ei6CuIqLXa-13" value="Page 1" style="strokeWidth=1;shadow=0;dashed=0;align=center;html=1;shape=mxgraph.mockup.containers.anchor;fontSize=17;fontColor=#666666;align=left;" parent="aPGD0B7xL6Ei6CuIqLXa-12" vertex="1">
          <mxGeometry x="60" y="12" width="110" height="26" as="geometry" />
        </mxCell>
        <mxCell id="aPGD0B7xL6Ei6CuIqLXa-14" value="https://www.draw.io" style="strokeWidth=1;shadow=0;dashed=0;align=center;html=1;shape=mxgraph.mockup.containers.anchor;rSize=0;fontSize=17;fontColor=#666666;align=left;" parent="aPGD0B7xL6Ei6CuIqLXa-12" vertex="1">
          <mxGeometry x="130" y="60" width="250" height="26" as="geometry" />
        </mxCell>
        <mxCell id="K1Y7uYMDMErFbE7dxKjb-28" value="" style="shape=image;html=1;verticalAlign=top;verticalLabelPosition=bottom;labelBackgroundColor=#ffffff;imageAspect=0;aspect=fixed;image=https://cdn4.iconfinder.com/data/icons/ionicons/512/icon-image-128.png" parent="aPGD0B7xL6Ei6CuIqLXa-12" vertex="1">
          <mxGeometry x="31" y="148" width="90" height="90" as="geometry" />
        </mxCell>
        <mxCell id="K1Y7uYMDMErFbE7dxKjb-29" value="" style="shape=image;html=1;verticalAlign=top;verticalLabelPosition=bottom;labelBackgroundColor=#ffffff;imageAspect=0;aspect=fixed;image=https://cdn4.iconfinder.com/data/icons/ionicons/512/icon-image-128.png" parent="aPGD0B7xL6Ei6CuIqLXa-12" vertex="1">
          <mxGeometry x="31" y="328" width="90" height="90" as="geometry" />
        </mxCell>
        <mxCell id="K1Y7uYMDMErFbE7dxKjb-30" value="&lt;font style=&quot;font-size: 14px&quot;&gt;SIMILAR RESULTS&lt;/font&gt;" style="text;html=1;resizable=0;autosize=1;align=left;verticalAlign=middle;points=[];fillColor=none;strokeColor=none;rounded=0;" parent="aPGD0B7xL6Ei6CuIqLXa-12" vertex="1">
          <mxGeometry x="30" y="125" width="140" height="20" as="geometry" />
        </mxCell>
        <mxCell id="K1Y7uYMDMErFbE7dxKjb-31" value="" style="shape=image;html=1;verticalAlign=top;verticalLabelPosition=bottom;labelBackgroundColor=#ffffff;imageAspect=0;aspect=fixed;image=https://cdn4.iconfinder.com/data/icons/multimedia-75/512/multimedia-10-128.png" parent="aPGD0B7xL6Ei6CuIqLXa-12" vertex="1">
          <mxGeometry x="130" y="290" width="25" height="25" as="geometry" />
        </mxCell>
        <mxCell id="K1Y7uYMDMErFbE7dxKjb-32" value="&lt;font style=&quot;font-size: 14px&quot;&gt;Work name - Artist&lt;/font&gt;" style="text;html=1;resizable=0;autosize=1;align=center;verticalAlign=middle;points=[];fillColor=none;strokeColor=none;rounded=0;fontSize=12;" parent="aPGD0B7xL6Ei6CuIqLXa-12" vertex="1">
          <mxGeometry x="125" y="165" width="130" height="20" as="geometry" />
        </mxCell>
        <mxCell id="K1Y7uYMDMErFbE7dxKjb-33" value="" style="shape=image;html=1;verticalAlign=top;verticalLabelPosition=bottom;labelBackgroundColor=#ffffff;imageAspect=0;aspect=fixed;image=https://cdn4.iconfinder.com/data/icons/ionicons/512/icon-image-128.png" parent="aPGD0B7xL6Ei6CuIqLXa-12" vertex="1">
          <mxGeometry x="31" y="238" width="90" height="90" as="geometry" />
        </mxCell>
        <mxCell id="K1Y7uYMDMErFbE7dxKjb-34" value="" style="shape=image;html=1;verticalAlign=top;verticalLabelPosition=bottom;labelBackgroundColor=#ffffff;imageAspect=0;aspect=fixed;image=https://cdn4.iconfinder.com/data/icons/multimedia-75/512/multimedia-10-128.png" parent="aPGD0B7xL6Ei6CuIqLXa-12" vertex="1">
          <mxGeometry x="130" y="202.5" width="25" height="25" as="geometry" />
        </mxCell>
        <mxCell id="K1Y7uYMDMErFbE7dxKjb-35" value="" style="shape=image;html=1;verticalAlign=top;verticalLabelPosition=bottom;labelBackgroundColor=#ffffff;imageAspect=0;aspect=fixed;image=https://cdn4.iconfinder.com/data/icons/multimedia-75/512/multimedia-10-128.png" parent="aPGD0B7xL6Ei6CuIqLXa-12" vertex="1">
          <mxGeometry x="130" y="380" width="25" height="25" as="geometry" />
        </mxCell>
        <mxCell id="K1Y7uYMDMErFbE7dxKjb-38" value="" style="verticalLabelPosition=bottom;verticalAlign=top;html=1;shadow=0;dashed=0;strokeWidth=1;shape=mxgraph.android.quickscroll3;dy=0.5;fillColor=#33b5e5;strokeColor=#66D5F5;fontSize=12;" parent="aPGD0B7xL6Ei6CuIqLXa-12" vertex="1">
          <mxGeometry x="544" y="110" width="6" height="320" as="geometry" />
        </mxCell>
        <mxCell id="K1Y7uYMDMErFbE7dxKjb-39" value="&lt;font style=&quot;font-size: 11px&quot;&gt;Lorem ipsum dolor sit amet, consectetur adipisicing elit, sed do eiusmod tempor incididunt ut labore et dolore magna aliqua.&amp;nbsp;&lt;/font&gt;" style="text;spacingTop=-5;whiteSpace=wrap;html=1;align=center;fontSize=7;fontFamily=Helvetica;fillColor=none;strokeColor=none;" parent="aPGD0B7xL6Ei6CuIqLXa-12" vertex="1">
          <mxGeometry x="331" y="348" width="170" height="50" as="geometry" />
        </mxCell>
        <mxCell id="K1Y7uYMDMErFbE7dxKjb-40" value="&lt;font style=&quot;font-size: 11px&quot;&gt;Lorem ipsum dolor sit amet, consectetur adipisicing elit, sed do eiusmod tempor incididunt ut labore et dolore magna aliqua.&amp;nbsp;&lt;/font&gt;" style="text;spacingTop=-5;whiteSpace=wrap;html=1;align=center;fontSize=7;fontFamily=Helvetica;fillColor=none;strokeColor=none;" parent="aPGD0B7xL6Ei6CuIqLXa-12" vertex="1">
          <mxGeometry x="331" y="168" width="170" height="50" as="geometry" />
        </mxCell>
        <mxCell id="K1Y7uYMDMErFbE7dxKjb-41" value="&lt;font style=&quot;font-size: 11px&quot;&gt;Lorem ipsum dolor sit amet, consectetur adipisicing elit, sed do eiusmod tempor incididunt ut labore et dolore magna aliqua.&amp;nbsp;&lt;/font&gt;" style="text;spacingTop=-5;whiteSpace=wrap;html=1;align=center;fontSize=7;fontFamily=Helvetica;fillColor=none;strokeColor=none;" parent="aPGD0B7xL6Ei6CuIqLXa-12" vertex="1">
          <mxGeometry x="331" y="258" width="170" height="50" as="geometry" />
        </mxCell>
        <mxCell id="aPGD0B7xL6Ei6CuIqLXa-16" value="&lt;font style=&quot;font-size: 14px&quot;&gt;Work name - Artist&lt;/font&gt;" style="text;html=1;resizable=0;autosize=1;align=center;verticalAlign=middle;points=[];fillColor=none;strokeColor=none;rounded=0;fontSize=12;" parent="aPGD0B7xL6Ei6CuIqLXa-12" vertex="1">
          <mxGeometry x="125" y="258" width="130" height="20" as="geometry" />
        </mxCell>
        <mxCell id="aPGD0B7xL6Ei6CuIqLXa-17" value="&lt;font style=&quot;font-size: 14px&quot;&gt;Work name - Artist&lt;/font&gt;" style="text;html=1;resizable=0;autosize=1;align=center;verticalAlign=middle;points=[];fillColor=none;strokeColor=none;rounded=0;fontSize=12;" parent="aPGD0B7xL6Ei6CuIqLXa-12" vertex="1">
          <mxGeometry x="125" y="348" width="130" height="20" as="geometry" />
        </mxCell>
      </root>
    </mxGraphModel>
  </diagram>
</mxfile>
